<mxfile host="app.diagrams.net" modified="2022-02-14T15:21:25.082Z" agent="5.0 (Windows)" etag="g9gV3o_9Fw9gzOfyhtMh" version="16.5.3" type="github">
  <diagram id="C5RBs43oDa-KdzZeNtuy" name="Page-1">
    <mxGraphModel dx="1422" dy="752" grid="1" gridSize="10" guides="1" tooltips="1" connect="1" arrows="1" fold="1" page="1" pageScale="1" pageWidth="827" pageHeight="1169" math="0" shadow="0">
      <root>
        <mxCell id="WIyWlLk6GJQsqaUBKTNV-0" />
        <mxCell id="WIyWlLk6GJQsqaUBKTNV-1" parent="WIyWlLk6GJQsqaUBKTNV-0" />
        <mxCell id="s5pqpI4zIyqzlfYDUBWL-0" value="&lt;div&gt;Kwaliteitszorg&lt;/div&gt;" style="ellipse;whiteSpace=wrap;html=1;" vertex="1" parent="WIyWlLk6GJQsqaUBKTNV-1">
          <mxGeometry x="330" y="300" width="120" height="80" as="geometry" />
        </mxCell>
        <mxCell id="s5pqpI4zIyqzlfYDUBWL-13" value="" style="edgeStyle=orthogonalEdgeStyle;rounded=0;orthogonalLoop=1;jettySize=auto;html=1;" edge="1" parent="WIyWlLk6GJQsqaUBKTNV-1" source="s5pqpI4zIyqzlfYDUBWL-1" target="s5pqpI4zIyqzlfYDUBWL-3">
          <mxGeometry relative="1" as="geometry" />
        </mxCell>
        <mxCell id="s5pqpI4zIyqzlfYDUBWL-1" value="Student-centered Visie" style="rounded=0;whiteSpace=wrap;html=1;" vertex="1" parent="WIyWlLk6GJQsqaUBKTNV-1">
          <mxGeometry x="190" y="30" width="120" height="60" as="geometry" />
        </mxCell>
        <mxCell id="s5pqpI4zIyqzlfYDUBWL-16" style="edgeStyle=orthogonalEdgeStyle;rounded=0;orthogonalLoop=1;jettySize=auto;html=1;entryX=0.5;entryY=1;entryDx=0;entryDy=0;" edge="1" parent="WIyWlLk6GJQsqaUBKTNV-1" source="s5pqpI4zIyqzlfYDUBWL-2" target="s5pqpI4zIyqzlfYDUBWL-1">
          <mxGeometry relative="1" as="geometry">
            <Array as="points">
              <mxPoint x="600" y="110" />
              <mxPoint x="250" y="110" />
            </Array>
          </mxGeometry>
        </mxCell>
        <mxCell id="s5pqpI4zIyqzlfYDUBWL-2" value="Transparantie &amp;amp; Reflectie" style="rounded=0;whiteSpace=wrap;html=1;" vertex="1" parent="WIyWlLk6GJQsqaUBKTNV-1">
          <mxGeometry x="540" y="30" width="120" height="60" as="geometry" />
        </mxCell>
        <mxCell id="s5pqpI4zIyqzlfYDUBWL-14" value="" style="edgeStyle=orthogonalEdgeStyle;rounded=0;orthogonalLoop=1;jettySize=auto;html=1;" edge="1" parent="WIyWlLk6GJQsqaUBKTNV-1" source="s5pqpI4zIyqzlfYDUBWL-3" target="s5pqpI4zIyqzlfYDUBWL-2">
          <mxGeometry relative="1" as="geometry" />
        </mxCell>
        <mxCell id="s5pqpI4zIyqzlfYDUBWL-3" value="Continue Verbetering" style="rounded=0;whiteSpace=wrap;html=1;" vertex="1" parent="WIyWlLk6GJQsqaUBKTNV-1">
          <mxGeometry x="370" y="30" width="120" height="60" as="geometry" />
        </mxCell>
        <mxCell id="s5pqpI4zIyqzlfYDUBWL-5" value="NVAO" style="ellipse;whiteSpace=wrap;html=1;" vertex="1" parent="WIyWlLk6GJQsqaUBKTNV-1">
          <mxGeometry x="20" y="20" width="120" height="80" as="geometry" />
        </mxCell>
        <mxCell id="s5pqpI4zIyqzlfYDUBWL-17" value="- Niveau volgens NLQF&#xa;- Toetsing wettelijk deugdelijk&#xa;- Vaardigheden realiseerbaar&#xa;- Leerresultaten te behalen&#xa;- Vaardigheden en leerresultaten aantoonbaar&#xa;- Docenten gekwalificeerd&#xa;- Huisvesting adequaat&#xa;- Studiebegeleiding naar behoefte&#xa;- Kwaliteitszorg en -cultuur&#xa;&#xa;&#xa;&#xa;&#xa;" style="text;strokeColor=none;fillColor=none;align=left;verticalAlign=middle;spacingLeft=4;spacingRight=4;overflow=hidden;points=[[0,0.5],[1,0.5]];portConstraint=eastwest;rotatable=0;fontStyle=0" vertex="1" parent="WIyWlLk6GJQsqaUBKTNV-1">
          <mxGeometry x="30" y="140" width="260" height="130" as="geometry" />
        </mxCell>
      </root>
    </mxGraphModel>
  </diagram>
</mxfile>
